<svg width="20" height="16" viewBox="0 0 20 16" fill="none" xmlns="http://www.w3.org/2000/svg">
<path d="M16.4166 0.666992H3.58325C2.85391 0.666992 2.15443 0.956724 1.63871 1.47245C1.12298 1.98817 0.833252 2.68765 0.833252 3.41699V12.5837C0.833252 13.313 1.12298 14.0125 1.63871 14.5282C2.15443 15.0439 2.85391 15.3337 3.58325 15.3337H16.4166C17.1459 15.3337 17.8454 15.0439 18.3611 14.5282C18.8769 14.0125 19.1666 13.313 19.1666 12.5837V3.41699C19.1666 2.68765 18.8769 1.98817 18.3611 1.47245C17.8454 0.956724 17.1459 0.666992 16.4166 0.666992ZM3.58325 2.50033H16.4166C16.6597 2.50033 16.8929 2.5969 17.0648 2.76881C17.2367 2.94072 17.3333 3.17388 17.3333 3.41699L9.99992 7.89033L2.66659 3.41699C2.66659 3.17388 2.76316 2.94072 2.93507 2.76881C3.10698 2.5969 3.34014 2.50033 3.58325 2.50033ZM17.3333 12.5837C17.3333 12.8268 17.2367 13.0599 17.0648 13.2318C16.8929 13.4037 16.6597 13.5003 16.4166 13.5003H3.58325C3.34014 13.5003 3.10698 13.4037 2.93507 13.2318C2.76316 13.0599 2.66659 12.8268 2.66659 12.5837V5.50699L9.52325 9.69616C9.6626 9.77661 9.82068 9.81897 9.98159 9.81897C10.1425 9.81897 10.3006 9.77661 10.4399 9.69616L17.3333 5.50699V12.5837Z" fill="#603009"/>
</svg>
