<svg width="35" height="24" viewBox="0 0 35 24" fill="none" xmlns="http://www.w3.org/2000/svg">
<path d="M34.4583 8.55507C34.5346 6.34841 34.052 4.15826 33.0554 2.18799C32.3792 1.37953 31.4409 0.833955 30.4038 0.646319C26.1141 0.257087 21.8067 0.0975538 17.5 0.168402C13.209 0.0943381 8.91709 0.248723 4.6425 0.630903C3.79739 0.784632 3.0153 1.18103 2.39167 1.77174C1.00417 3.05132 0.850001 5.24049 0.695834 7.09049C0.472157 10.4167 0.472157 13.7542 0.695834 17.0805C0.740435 18.1217 0.89547 19.1553 1.15833 20.1638C1.34422 20.9425 1.72031 21.6629 2.25292 22.2605C2.88079 22.8825 3.68109 23.3014 4.55 23.463C7.8737 23.8732 11.2227 24.0433 14.5708 23.9717C19.9667 24.0488 24.6996 23.9717 30.2958 23.5401C31.1861 23.3884 32.0089 22.969 32.6546 22.3376C33.0862 21.9058 33.4086 21.3773 33.595 20.7959C34.1463 19.1041 34.4171 17.3335 34.3967 15.5542C34.4583 14.6909 34.4583 9.48007 34.4583 8.55507ZM14.0158 16.4792V6.93632L23.1425 11.7309C20.5833 13.1492 17.2071 14.7526 14.0158 16.4792Z" fill="white"/>
</svg>
