<svg width="17" height="29" viewBox="0 0 17 29" fill="none" xmlns="http://www.w3.org/2000/svg">
<path d="M1.25742 13.0404L12.76 1.55817C12.9489 1.36769 13.1737 1.2165 13.4213 1.11333C13.669 1.01015 13.9346 0.957031 14.2029 0.957031C14.4712 0.957031 14.7368 1.01015 14.9845 1.11333C15.2321 1.2165 15.4569 1.36769 15.6458 1.55817C16.0243 1.93894 16.2368 2.45402 16.2368 2.99091C16.2368 3.5278 16.0243 4.04289 15.6458 4.42365L5.58613 14.5849L15.6458 24.6446C16.0243 25.0254 16.2368 25.5405 16.2368 26.0774C16.2368 26.6143 16.0243 27.1293 15.6458 27.5101C15.4576 27.7021 15.2331 27.8549 14.9855 27.9595C14.7378 28.0642 14.4718 28.1187 14.2029 28.1198C13.934 28.1187 13.668 28.0642 13.4204 27.9595C13.1727 27.8549 12.9482 27.7021 12.76 27.5101L1.25742 16.0278C1.05113 15.8375 0.886502 15.6066 0.7739 15.3495C0.661299 15.0924 0.603167 14.8148 0.603167 14.5341C0.603167 14.2535 0.661299 13.9759 0.7739 13.7188C0.886502 13.4617 1.05113 13.2307 1.25742 13.0404Z" fill="#40230E"/>
</svg>
