<svg width="20" height="20" viewBox="0 0 20 20" fill="none" xmlns="http://www.w3.org/2000/svg">
<path d="M10.0834 0.833984C8.27042 0.833984 6.49814 1.3716 4.99069 2.37885C3.48324 3.38609 2.30833 4.81773 1.61452 6.49272C0.92072 8.16771 0.739189 10.0108 1.09289 11.789C1.44658 13.5671 2.31963 15.2005 3.60161 16.4825C4.88359 17.7644 6.51693 18.6375 8.29509 18.9912C10.0733 19.3449 11.9164 19.1634 13.5914 18.4695C15.2663 17.7757 16.698 16.6008 17.7052 15.0934C18.7125 13.5859 19.2501 11.8136 19.2501 10.0007C19.2501 8.79687 19.013 7.60487 18.5523 6.49272C18.0916 5.38057 17.4164 4.37004 16.5652 3.51884C15.714 2.66764 14.7035 1.99242 13.5914 1.53176C12.4792 1.07109 11.2872 0.833984 10.0834 0.833984ZM10.0834 17.334C8.63302 17.334 7.2152 16.9039 6.00924 16.0981C4.80328 15.2923 3.86334 14.147 3.3083 12.807C2.75326 11.467 2.60804 9.99252 2.89099 8.56999C3.17395 7.14746 3.87238 5.84079 4.89797 4.8152C5.92355 3.78962 7.23023 3.09118 8.65276 2.80823C10.0753 2.52527 11.5498 2.67049 12.8898 3.22553C14.2298 3.78058 15.3751 4.72051 16.1809 5.92647C16.9867 7.13243 17.4168 8.55025 17.4168 10.0007C17.4168 11.9456 16.6441 13.8108 15.2689 15.1861C13.8936 16.5614 12.0283 17.334 10.0834 17.334ZM10.0834 4.50065C9.8403 4.50065 9.60715 4.59723 9.43524 4.76914C9.26333 4.94104 9.16675 5.1742 9.16675 5.41732V9.46898L7.24175 10.5782C7.06516 10.6782 6.92678 10.8341 6.8483 11.0212C6.76982 11.2084 6.75569 11.4164 6.80812 11.6125C6.86055 11.8085 6.97657 11.9817 7.138 12.1047C7.29942 12.2278 7.49712 12.2937 7.70009 12.2923C7.86066 12.2934 8.01872 12.2523 8.15842 12.1732L10.5418 10.7982L10.6243 10.7157L10.7709 10.5965C10.8068 10.5511 10.8375 10.5019 10.8626 10.4498C10.8925 10.4006 10.917 10.3484 10.9359 10.294C10.9609 10.2357 10.9763 10.1738 10.9818 10.1107L11.0001 10.0007V5.41732C11.0001 5.1742 10.9035 4.94104 10.7316 4.76914C10.5597 4.59723 10.3265 4.50065 10.0834 4.50065Z" fill="#603009"/>
</svg>
