<svg width="31" height="32" viewBox="0 0 31 32" fill="none" xmlns="http://www.w3.org/2000/svg">
<path d="M15.5 12.2633C14.7439 12.2633 14.0047 12.4875 13.3759 12.9076C12.7472 13.3277 12.2571 13.9248 11.9677 14.6235C11.6784 15.3221 11.6026 16.0908 11.7502 16.8325C11.8977 17.5741 12.2618 18.2554 12.7965 18.7901C13.3312 19.3248 14.0125 19.6889 14.7541 19.8365C15.4958 19.984 16.2645 19.9083 16.9632 19.6189C17.6618 19.3295 18.2589 18.8395 18.679 18.2107C19.0991 17.582 19.3234 16.8428 19.3234 16.0866C19.3234 15.5845 19.2245 15.0873 19.0323 14.6235C18.8402 14.1596 18.5586 13.7381 18.2035 13.3831C17.8485 13.0281 17.427 12.7464 16.9632 12.5543C16.4993 12.3621 16.0021 12.2633 15.5 12.2633ZM30.8088 8.48617C30.8007 7.29563 30.5815 6.11597 30.1613 5.00201C29.8519 4.18686 29.3731 3.44661 28.7565 2.83008C28.14 2.21356 27.3998 1.73478 26.5846 1.42534C25.4707 1.00518 24.291 0.785949 23.1005 0.777838C21.1117 0.669922 20.5259 0.669922 15.5 0.669922C10.4742 0.669922 9.88837 0.669922 7.89962 0.777838C6.70908 0.785949 5.52942 1.00518 4.41546 1.42534C3.60032 1.73478 2.86006 2.21356 2.24353 2.83008C1.62701 3.44661 1.14823 4.18686 0.838791 5.00201C0.418631 6.11597 0.199401 7.29563 0.191291 8.48617C0.0833739 10.4749 0.083374 11.0608 0.083374 16.0866C0.083374 21.1124 0.0833739 21.6983 0.191291 23.687C0.207885 24.8817 0.426818 26.065 0.838791 27.1866C1.14686 27.998 1.62524 28.734 2.24171 29.3449C2.85559 29.9651 3.59743 30.4439 4.41546 30.7478C5.52942 31.168 6.70908 31.3872 7.89962 31.3953C9.88837 31.5033 10.4742 31.5033 15.5 31.5033C20.5259 31.5033 21.1117 31.5033 23.1005 31.3953C24.291 31.3872 25.4707 31.168 26.5846 30.7478C27.4027 30.4439 28.1445 29.9651 28.7584 29.3449C29.3748 28.734 29.8532 27.998 30.1613 27.1866C30.581 26.0672 30.8002 24.8825 30.8088 23.687C30.9167 21.6983 30.9167 21.1124 30.9167 16.0866C30.9167 11.0608 30.9167 10.4749 30.8088 8.48617ZM26.893 20.8195C26.8435 21.7709 26.6404 22.708 26.2917 23.5945C25.9924 24.334 25.5475 25.0058 24.9834 25.5699C24.4193 26.134 23.7475 26.579 23.008 26.8783C22.113 27.2075 21.1707 27.3898 20.2175 27.4178C18.9996 27.4178 18.6759 27.4178 15.5 27.4178C12.3242 27.4178 12.0005 27.4178 10.7825 27.4178C9.82938 27.3898 8.88704 27.2075 7.99212 26.8783C7.22762 26.5942 6.53722 26.1409 5.97254 25.5524C5.41394 24.9994 4.98255 24.3312 4.70837 23.5945C4.37777 22.7005 4.20056 21.7571 4.18421 20.8041C4.18421 19.5862 4.18421 19.2624 4.18421 16.0866C4.18421 12.9108 4.18421 12.587 4.18421 11.3691C4.20056 10.4161 4.37777 9.47266 4.70837 8.57867C4.99247 7.81416 5.44571 7.12377 6.03421 6.55909C6.58972 6.00351 7.25716 5.57257 7.99212 5.29492C8.88704 4.96563 9.82938 4.78341 10.7825 4.75534C12.0005 4.75534 12.3242 4.75534 15.5 4.75534C18.6759 4.75534 18.9996 4.75534 20.2175 4.75534C21.1707 4.78341 22.113 4.96563 23.008 5.29492C23.7725 5.57902 24.4629 6.03226 25.0275 6.62076C25.5861 7.17383 26.0175 7.84196 26.2917 8.57867C26.621 9.47359 26.8032 10.4159 26.8313 11.3691C26.8313 12.587 26.8313 12.9108 26.8313 16.0866C26.8313 19.2624 26.9392 19.5862 26.893 20.8041V20.8195ZM24.4263 9.34951C24.2427 8.85152 23.9533 8.39929 23.578 8.024C23.2028 7.64872 22.7505 7.35931 22.2525 7.17576C21.5688 6.93874 20.8486 6.82393 20.125 6.83659C18.9225 6.83659 18.5834 6.83659 15.5 6.83659C12.4167 6.83659 12.0775 6.83659 10.875 6.83659C10.1478 6.8437 9.42752 6.9794 8.74754 7.23742C8.25718 7.41264 7.80973 7.69023 7.43494 8.05173C7.06015 8.41323 6.76659 8.85037 6.57379 9.33409C6.34991 10.0207 6.24053 10.7395 6.25004 11.4616C6.25004 12.6641 6.25004 13.0033 6.25004 16.0866C6.25004 19.1699 6.25004 19.5091 6.25004 20.7116C6.26533 21.438 6.40077 22.1569 6.65087 22.8391C6.83443 23.3371 7.12383 23.7893 7.49912 24.1646C7.87441 24.5399 8.32664 24.8293 8.82463 25.0128C9.4824 25.2547 10.1746 25.3901 10.875 25.4137C12.0775 25.4137 12.4167 25.4137 15.5 25.4137C18.5834 25.4137 18.9225 25.4137 20.125 25.4137C20.8523 25.4066 21.5726 25.2709 22.2525 25.0128C22.7505 24.8293 23.2028 24.5399 23.578 24.1646C23.9533 23.7893 24.2427 23.3371 24.4263 22.8391C24.6843 22.1591 24.82 21.4388 24.8271 20.7116C24.8271 19.5091 24.8271 19.1699 24.8271 16.0866C24.8271 13.0033 24.8271 12.6641 24.8271 11.4616C24.8276 10.7336 24.6916 10.012 24.4263 9.33409V9.34951ZM15.5 21.9758C14.7274 21.9758 13.9623 21.8233 13.2487 21.5272C12.535 21.231 11.8868 20.797 11.3412 20.2499C10.7956 19.7029 10.3632 19.0535 10.069 18.3391C9.7747 17.6247 9.62426 16.8592 9.62629 16.0866C9.62629 14.9212 9.97208 13.7819 10.6199 12.8131C11.2677 11.8443 12.1883 11.0895 13.2653 10.6442C14.3424 10.199 15.5273 10.0832 16.6701 10.3117C17.8129 10.5402 18.8622 11.1026 19.6852 11.9278C20.5082 12.753 21.0679 13.8037 21.2933 14.9471C21.5188 16.0905 21.4 17.2751 20.9519 18.351C20.5038 19.4268 19.7466 20.3455 18.7761 20.9908C17.8056 21.636 16.6655 21.9788 15.5 21.9758ZM21.6667 11.3537C21.3259 11.3176 21.0105 11.1567 20.7813 10.9019C20.5521 10.6472 20.4253 10.3166 20.4253 9.97388C20.4253 9.63118 20.5521 9.3006 20.7813 9.04584C21.0105 8.79108 21.3259 8.63016 21.6667 8.59409C22.0075 8.63016 22.3229 8.79108 22.5521 9.04584C22.7813 9.3006 22.9082 9.63118 22.9082 9.97388C22.9082 10.3166 22.7813 10.6472 22.5521 10.9019C22.3229 11.1567 22.0075 11.3176 21.6667 11.3537Z" fill="white"/>
</svg>
