<svg width="16" height="20" viewBox="0 0 16 20" fill="none" xmlns="http://www.w3.org/2000/svg">
<path d="M8.00008 0.833008C6.05516 0.833008 4.1899 1.60562 2.81463 2.98089C1.43936 4.35616 0.666748 6.22142 0.666748 8.16634C0.666748 13.1163 7.12925 18.708 7.40425 18.9463C7.57029 19.0884 7.78159 19.1664 8.00008 19.1664C8.21857 19.1664 8.42988 19.0884 8.59591 18.9463C8.91675 18.708 15.3334 13.1163 15.3334 8.16634C15.3334 6.22142 14.5608 4.35616 13.1855 2.98089C11.8103 1.60562 9.945 0.833008 8.00008 0.833008ZM8.00008 17.0122C6.04758 15.1788 2.50008 11.228 2.50008 8.16634C2.50008 6.70765 3.07954 5.3087 4.11099 4.27725C5.14244 3.2458 6.54139 2.66634 8.00008 2.66634C9.45877 2.66634 10.8577 3.2458 11.8892 4.27725C12.9206 5.3087 13.5001 6.70765 13.5001 8.16634C13.5001 11.228 9.95258 15.188 8.00008 17.0122ZM8.00008 4.49967C7.27488 4.49967 6.56597 4.71472 5.96299 5.11762C5.36001 5.52052 4.89004 6.09317 4.61252 6.76317C4.335 7.43316 4.26239 8.17041 4.40387 8.88167C4.54535 9.59293 4.89456 10.2463 5.40736 10.7591C5.92015 11.2719 6.57349 11.6211 7.28475 11.7626C7.99601 11.904 8.73326 11.8314 9.40325 11.5539C10.0732 11.2764 10.6459 10.8064 11.0488 10.2034C11.4517 9.60045 11.6667 8.89154 11.6667 8.16634C11.6667 7.19388 11.2804 6.26125 10.5928 5.57362C9.90517 4.88598 8.97254 4.49967 8.00008 4.49967ZM8.00008 9.99967C7.63748 9.99967 7.28303 9.89215 6.98154 9.6907C6.68005 9.48925 6.44506 9.20292 6.3063 8.86793C6.16754 8.53293 6.13123 8.16431 6.20197 7.80867C6.27271 7.45304 6.44732 7.12637 6.70372 6.86998C6.96011 6.61358 7.28678 6.43897 7.64242 6.36823C7.99805 6.29749 8.36667 6.3338 8.70167 6.47256C9.03666 6.61132 9.32299 6.84631 9.52444 7.1478C9.72589 7.44929 9.83341 7.80374 9.83341 8.16634C9.83341 8.65257 9.64026 9.11889 9.29644 9.4627C8.95263 9.80652 8.48631 9.99967 8.00008 9.99967Z" fill="#603009"/>
</svg>
