<svg width="57" height="57" viewBox="0 0 57 57" fill="none" xmlns="http://www.w3.org/2000/svg">
<path d="M33.4875 28.5L55.9313 6.05625C57.3563 4.63125 57.3563 2.49375 55.9313 1.06875C54.5063 -0.35625 52.3687 -0.35625 50.9437 1.06875L28.5 23.5125L6.05625 1.06875C4.63125 -0.35625 2.49375 -0.35625 1.06875 1.06875C-0.356249 2.49375 -0.356249 4.63125 1.06875 6.05625L23.5125 28.5L1.06875 50.9437C0.356251 51.6562 0 52.3688 0 53.4375C0 55.575 1.425 57 3.5625 57C4.63125 57 5.34375 56.6438 6.05625 55.9313L28.5 33.4875L50.9437 55.9313C51.6562 56.6438 52.3688 57 53.4375 57C54.5062 57 55.2188 56.6438 55.9313 55.9313C57.3563 54.5063 57.3563 52.3687 55.9313 50.9437L33.4875 28.5Z" fill="#40230e"/>
</svg>
